<svg width="32" height="32" viewBox="0 0 32 32" fill="none" xmlns="http://www.w3.org/2000/svg">
<path d="M18.4266 29.3337H13.5733C12.9468 29.3337 12.4047 28.8977 12.2706 28.2857L11.728 25.7737C11.004 25.4565 10.3176 25.0598 9.68131 24.591L7.23197 25.371C6.63464 25.5615 5.98529 25.3101 5.67197 24.767L3.23997 20.5657C2.93009 20.0223 3.03685 19.337 3.49731 18.9137L5.39731 17.1803C5.3109 16.3951 5.3109 15.6028 5.39731 14.8177L3.49731 13.0883C3.03617 12.6648 2.92937 11.9786 3.23997 11.435L5.66664 7.23099C5.97996 6.68792 6.62931 6.43651 7.22664 6.62699L9.67597 7.40699C10.0014 7.16587 10.3402 6.94329 10.6906 6.74033C11.0271 6.55058 11.3734 6.37879 11.728 6.22566L12.272 3.71633C12.4054 3.10428 12.9469 2.66765 13.5733 2.66699H18.4266C19.0531 2.66765 19.5945 3.10428 19.728 3.71633L20.2773 6.22699C20.6517 6.39168 21.0163 6.57777 21.3693 6.78433C21.699 6.97469 22.0177 7.18347 22.324 7.40966L24.7746 6.62966C25.3716 6.43988 26.0201 6.6912 26.3333 7.23366L28.76 11.4377C29.0699 11.981 28.9631 12.6663 28.5026 13.0897L26.6026 14.823C26.689 15.6082 26.689 16.4005 26.6026 17.1857L28.5026 18.919C28.9631 19.3423 29.0699 20.0277 28.76 20.571L26.3333 24.775C26.0201 25.3174 25.3716 25.5688 24.7746 25.379L22.324 24.599C22.0139 24.8274 21.6916 25.0388 21.3586 25.2323C21.0091 25.4349 20.6485 25.6178 20.2786 25.7803L19.728 28.2857C19.594 28.8972 19.0527 29.3331 18.4266 29.3337ZM15.9946 10.667C13.0491 10.667 10.6613 13.0548 10.6613 16.0003C10.6613 18.9458 13.0491 21.3337 15.9946 21.3337C18.9402 21.3337 21.328 18.9458 21.328 16.0003C21.328 13.0548 18.9402 10.667 15.9946 10.667Z" fill="white"/>
</svg>
